<svg width="48" height="48" viewBox="0 0 48 48" fill="none" xmlns="http://www.w3.org/2000/svg">
<path d="M39.0026 44.8711C38.854 46.3799 37.492 47.6143 35.9762 47.6143H17.4123C15.8964 47.6143 14.5344 46.3799 14.386 44.8711L11.4571 15.1288C11.3086 13.6202 12.4275 12.3856 13.9435 12.3856H39.4452C40.9611 12.3856 42.08 13.6201 41.9314 15.1288L39.0026 44.8711Z" fill="#333E48"/>
<path d="M40.9196 12.3858C42.6209 12.3858 44 13.765 44 15.4662C44 17.1675 42.6208 18.5466 40.9196 18.5466H12.4689C10.7677 18.5467 9.38851 17.1676 9.38851 15.4662C9.38851 13.765 10.7677 12.3858 12.4689 12.3858H40.9196Z" fill="#3E4A57"/>
<path d="M33.6141 44.8711C33.4655 46.3799 32.1035 47.6143 30.5877 47.6143H12.0238C10.5079 47.6143 9.14591 46.3799 8.99739 44.8711L6.06862 15.1288C5.9201 13.6202 7.039 12.3856 8.55497 12.3856H34.0566C35.5726 12.3856 36.6915 13.6201 36.5429 15.1288L33.6141 44.8711Z" fill="#3E4A57"/>
<path d="M35.5311 12.3858C37.2324 12.3858 38.6115 13.765 38.6115 15.4662C38.6115 17.1675 37.2323 18.5466 35.5311 18.5466H7.08043C5.37923 18.5467 4 17.1676 4 15.4662C4 13.765 5.37923 12.3858 7.08043 12.3858H35.5311Z" fill="#4C5B6B"/>
<path d="M25.9753 28.1848L23.274 23.506V23.5061L19.3471 23.5062L19.347 23.5061L17.0068 27.5597L18.768 27.3356L19.4852 29.0462L21.33 25.851L23.502 29.6128L22.2265 30.3493L25.8614 30.812L27.2781 27.4326L25.9753 28.1848Z" fill="#8DCD6F"/>
<path d="M15.6534 29.9055L12.952 34.5845L12.9523 34.5843L14.9158 37.985V37.9851H19.5962L18.5216 36.5719L19.6446 35.0954H15.955L18.1269 31.3335L19.4023 32.07L17.9855 28.6907L14.3506 29.1533L15.6534 29.9055Z" fill="#8DCD6F"/>
<path d="M22.2935 37.9669H27.6964L27.6959 37.9667L29.6594 34.5659H29.6595L27.3193 30.5125L26.6327 32.1498L24.7925 31.9155L26.6373 35.1109H22.2935V33.6379L20.0755 36.5546L22.2936 39.4711L22.2935 37.9669Z" fill="#8DCD6F"/>
</svg>
