<svg width="381" height="381" viewBox="0 0 381 381" fill="none" xmlns="http://www.w3.org/2000/svg">
<g filter="url(#filter0_d_219_40)">
<path d="M324.798 348.376C323.474 361.816 311.342 372.812 297.839 372.812H132.475C118.971 372.812 106.839 361.816 105.517 348.376L79.427 83.436C78.104 69.997 88.071 59 101.575 59H328.74C342.244 59 352.211 69.996 350.887 83.436L324.798 348.376Z" fill="#333E48"/>
<path d="M341.874 59.001C357.029 59.001 369.314 71.287 369.314 86.441C369.314 101.596 357.028 113.881 341.874 113.881H88.44C73.286 113.882 61 101.597 61 86.441C61 71.287 73.286 59.001 88.44 59.001H341.874Z" fill="#3E4A57"/>
<path d="M276.798 348.376C275.474 361.816 263.342 372.812 249.839 372.812H84.475C70.971 372.812 58.839 361.816 57.516 348.376L31.427 83.436C30.104 69.997 40.071 59 53.575 59H280.74C294.244 59 304.211 69.996 302.887 83.436L276.798 348.376Z" fill="#3E4A57"/>
<path d="M293.874 59.001C309.029 59.001 321.314 71.287 321.314 86.441C321.314 101.596 309.028 113.881 293.874 113.881H40.44C25.286 113.882 13 101.597 13 86.441C13 71.287 25.286 59.001 40.44 59.001H293.874Z" fill="#4C5B6B"/>
<path d="M208.753 199.736L184.69 158.058V158.059L149.71 158.06L149.709 158.059L128.863 194.168L144.551 192.172L150.94 207.41L167.373 178.947L186.721 212.457L175.359 219.017L207.738 223.139L220.358 193.036L208.753 199.736Z" fill="#8DCD6F"/>
<path d="M116.807 215.064L92.743 256.744L92.746 256.742L110.236 287.035V287.036H151.929L142.356 274.448L152.36 261.295H119.493L138.84 227.785L150.201 234.345L137.581 204.243L105.202 208.364L116.807 215.064Z" fill="#8DCD6F"/>
<path d="M175.956 286.874H224.084L224.08 286.872L241.57 256.578H241.571L220.725 220.471L214.609 235.056L198.217 232.969L214.65 261.433H175.956V248.312L156.198 274.293L175.957 300.273L175.956 286.874Z" fill="#8DCD6F"/>
</g>
<defs>
<filter id="filter0_d_219_40" x="-4" y="0" width="389" height="389" filterUnits="userSpaceOnUse" color-interpolation-filters="sRGB">
<feFlood flood-opacity="0" result="BackgroundImageFix"/>
<feColorMatrix in="SourceAlpha" type="matrix" values="0 0 0 0 0 0 0 0 0 0 0 0 0 0 0 0 0 0 127 0" result="hardAlpha"/>
<feOffset dy="4"/>
<feGaussianBlur stdDeviation="2"/>
<feComposite in2="hardAlpha" operator="out"/>
<feColorMatrix type="matrix" values="0 0 0 0 0 0 0 0 0 0 0 0 0 0 0 0 0 0 0.25 0"/>
<feBlend mode="normal" in2="BackgroundImageFix" result="effect1_dropShadow_219_40"/>
<feBlend mode="normal" in="SourceGraphic" in2="effect1_dropShadow_219_40" result="shape"/>
</filter>
</defs>
</svg>
