<?xml version="1.0" encoding="iso-8859-1"?>
<!-- Generator: Adobe Illustrator 19.0.0, SVG Export Plug-In . SVG Version: 6.00 Build 0)  -->
<svg version="1.1" id="Layer_1" xmlns="http://www.w3.org/2000/svg" xmlns:xlink="http://www.w3.org/1999/xlink" x="0px" y="0px"
	 viewBox="0 0 367.6 367.6" style="enable-background:new 0 0 367.6 367.6;" xml:space="preserve">
<g>
	<path style="fill:#FFA400;" d="M347.928,72.904h-164.61l-1.476-9.574c-1.647-10.693-11.849-19.442-22.669-19.442h-79.18
		c-10.82,0-21.022,8.749-22.668,19.442l-1.476,9.574h-5.611c-10.819,0-19.672,8.853-19.672,19.672V304.04
		c0,10.82,8.853,19.672,19.672,19.672h297.689c10.819,0,19.673-8.852,19.673-19.672V92.577
		C367.602,81.757,358.747,72.904,347.928,72.904z"/>
	<rect x="48.797" y="94.106" style="fill:#FFFFFF;" width="295.084" height="200.013"/>
	<path style="fill:#F6C65B;" d="M337.281,135.114c-1.718-10.683-11.976-19.423-22.795-19.423H16.796
		c-10.82,0-18.268,8.74-16.55,19.423L27.444,304.29c1.718,10.683,11.976,19.423,22.795,19.423h297.689
		c10.819,0,18.267-8.74,16.55-19.423L337.281,135.114z"/>
</g>
<g>
</g>
<g>
</g>
<g>
</g>
<g>
</g>
<g>
</g>
<g>
</g>
<g>
</g>
<g>
</g>
<g>
</g>
<g>
</g>
<g>
</g>
<g>
</g>
<g>
</g>
<g>
</g>
<g>
</g>
</svg>
