<svg width="1131" height="1131" viewBox="0 0 1131 1131" fill="none" xmlns="http://www.w3.org/2000/svg">
<g clip-path="url(#clip0_305_2)">
<path d="M0 96C0 62.3969 0 45.5953 6.53961 32.7606C12.292 21.4708 21.4708 12.292 32.7606 6.53961C45.5953 0 62.3968 0 96 0H1035C1068.6 0 1085.4 0 1098.24 6.53961C1109.53 12.292 1118.71 21.4708 1124.46 32.7606C1131 45.5953 1131 62.3968 1131 96V1035C1131 1068.6 1131 1085.4 1124.46 1098.24C1118.71 1109.53 1109.53 1118.71 1098.24 1124.46C1085.4 1131 1068.6 1131 1035 1131H96C62.3969 1131 45.5953 1131 32.7606 1124.46C21.4708 1118.71 12.292 1109.53 6.53961 1098.24C0 1085.4 0 1068.6 0 1035V96Z" fill="#F0DB4F"/>
<path d="M1038.43 861.259C1030.16 809.654 996.506 766.328 896.844 725.904C862.226 709.993 823.63 698.598 812.127 672.365C808.041 657.098 807.504 648.497 810.084 639.252C817.502 609.256 853.303 599.903 881.685 608.504C899.962 614.632 917.271 628.717 927.699 651.185C976.509 619.578 976.401 619.792 1010.48 598.077C998.011 578.725 991.345 569.8 983.174 561.523C953.824 528.733 913.831 511.854 849.863 513.144C838.789 514.542 827.609 516.046 816.535 517.444C784.605 525.508 754.179 542.279 736.333 564.749C682.793 625.491 698.059 731.817 763.21 775.575C827.393 823.739 921.679 834.705 933.72 879.751C945.439 934.904 893.19 952.749 841.262 946.407C802.988 938.452 781.703 918.992 758.695 883.622C716.337 908.134 716.337 908.134 672.796 933.184C683.116 955.761 693.974 965.974 711.284 985.541C793.206 1068.65 998.226 1064.56 1035 938.774C1036.5 934.473 1046.39 905.66 1038.43 861.259V861.259ZM614.847 519.809H509.057C509.057 611.192 508.629 701.93 508.629 793.313C508.629 851.475 511.639 904.8 502.178 921.141C486.697 953.286 446.596 949.309 428.319 943.072C409.72 933.934 400.259 920.925 389.293 902.542C386.283 897.274 384.025 893.189 383.271 892.867C354.567 910.391 325.969 928.021 297.264 945.546C311.564 974.896 332.634 1000.38 359.619 1016.93C399.935 1041.12 454.12 1048.54 510.779 1035.53C547.654 1024.78 579.476 1002.53 596.14 968.661C620.222 924.259 615.062 870.505 614.847 811.052C615.384 714.078 614.847 617.105 614.847 519.809Z" fill="#323330"/>
</g>
<defs>
<clipPath id="clip0_305_2">
<rect width="1131" height="1131" rx="10" fill="white"/>
</clipPath>
</defs>
</svg>
