<svg id="visual" viewBox="0 0 1240 600" width="1240" height="600" xmlns="http://www.w3.org/2000/svg" xmlns:xlink="http://www.w3.org/1999/xlink" version="1.1"><rect x="0" y="0" width="1240" height="600" fill="#191940"></rect><g transform="translate(37.36549973279486 549.8240947521674)"><path d="M180.4 -264.9C228.9 -249.6 260 -191.3 319.7 -126.6C379.5 -62 467.9 9 463.3 69.3C458.8 129.5 361.3 179 290.5 240.5C219.8 302 175.8 375.5 105.7 426.5C35.6 477.5 -60.7 506 -132.9 474.7C-205.1 443.4 -253.3 352.3 -326.2 277.5C-399 202.7 -496.4 144 -527 63.6C-557.5 -16.9 -521.2 -119.1 -472.5 -211.6C-423.8 -304.1 -362.7 -386.8 -281.9 -387.4C-201.1 -387.9 -100.6 -306.5 -17.3 -279.6C66 -252.6 131.9 -280.3 180.4 -264.9" fill="#2c4fa1"></path></g></svg>